<?xml version="1.0" encoding="UTF-8" standalone="no"?>
<svg
   xmlns:dc="http://purl.org/dc/elements/1.1/"
   xmlns:cc="http://creativecommons.org/ns#"
   xmlns:rdf="http://www.w3.org/1999/02/22-rdf-syntax-ns#"
   xmlns:svg="http://www.w3.org/2000/svg"
   xmlns="http://www.w3.org/2000/svg"
   xmlns:sodipodi="http://sodipodi.sourceforge.net/DTD/sodipodi-0.dtd"
   xmlns:inkscape="http://www.inkscape.org/namespaces/inkscape"
   width="210mm"
   height="297mm"
   viewBox="0 0 210 297"
   version="1.1"
   id="svg866"
   inkscape:version="1.0.1 (3bc2e813f5, 2020-09-07)"
   sodipodi:docname="contact.svg">
  <defs
     id="defs860" />
  <sodipodi:namedview
     id="base"
     pagecolor="#ffffff"
     bordercolor="#666666"
     borderopacity="1.0"
     inkscape:pageopacity="0.0"
     inkscape:pageshadow="2"
     inkscape:zoom="0.35"
     inkscape:cx="400"
     inkscape:cy="560"
     inkscape:document-units="mm"
     inkscape:current-layer="layer1"
     inkscape:document-rotation="0"
     showgrid="false"
     inkscape:window-width="1267"
     inkscape:window-height="1198"
     inkscape:window-x="992"
     inkscape:window-y="1440"
     inkscape:window-maximized="0" />
  <metadata
     id="metadata863">
    <rdf:RDF>
      <cc:Work
         rdf:about="">
        <dc:format>image/svg+xml</dc:format>
        <dc:type
           rdf:resource="http://purl.org/dc/dcmitype/StillImage" />
        <dc:title></dc:title>
      </cc:Work>
    </rdf:RDF>
  </metadata>
  <g
     inkscape:label="Layer 1"
     inkscape:groupmode="layer"
     id="layer1">
    <path
       d="m 189.32163,162.63595 h -30.32847 c -1.78604,0 -3.23101,-1.28823 -3.23101,-2.87679 v -10.14049 c 0,-1.58685 1.44497,-2.8751 3.23101,-2.8751 h 6.58465 c 3.65836,0 6.64022,-2.62939 6.64022,-5.8628 v -0.73202 c 0,-3.23169 -2.98186,-5.8611 -6.64022,-5.8611 h -29.27446 c -3.66024,0 -6.64021,2.62941 -6.64021,5.8611 v 0.73202 c 0,3.23341 2.97997,5.8628 6.64021,5.8628 h 6.58081 c 1.78604,0 3.23101,1.28825 3.23101,2.8751 v 10.14049 c 0,1.58856 -1.44497,2.87679 -3.23101,2.87679 H 67.653292 c -1.784093,0 -3.229065,-1.28823 -3.229065,-2.87679 v -10.14049 c 0,-1.58685 1.444972,-2.8751 3.229065,-2.8751 h 6.58277 c 3.662189,0 6.640204,-2.62939 6.640204,-5.8628 v -0.73202 c 0,-3.23169 -2.979978,-5.8611 -6.640204,-5.8611 H 44.96543 c -3.662189,0 -6.640203,2.62941 -6.640203,5.8611 v 0.73202 c 0,3.23341 2.979963,5.8628 6.640203,5.8628 h 6.580807 c 1.784162,0 3.229065,1.28825 3.229065,2.8751 v 10.14049 c 0,1.58856 -1.444903,2.87679 -3.229065,2.87679 H 21.21401 c -6.486942,0 -11.7646043,-4.67694 -11.7646043,-10.43054 V 25.439995 c 0,-5.750198 5.2776623,-10.42714 11.7646043,-10.42714 h 168.10762 c 6.48875,0 11.76453,4.676942 11.76453,10.42714 V 152.20541 c 0,5.7536 -5.27578,10.43054 -11.76453,10.43054 z m -27.09745,-5.75018 h 27.10317 c 2.92246,0 5.30258,-2.09874 5.30258,-4.67866 V 25.439995 c 0,-2.578208 -2.37439,-4.675233 -5.30258,-4.675233 H 21.21401 c -2.924424,0 -5.306419,2.097025 -5.306419,4.675233 V 152.20541 c 0,2.57991 2.380114,4.67865 5.306419,4.67865 h 27.101213 v -4.38858 H 44.96543 c -7.222758,0 -13.100283,-5.2093 -13.100283,-11.61301 v -0.732 c 0,-6.402 5.877525,-11.61131 13.100283,-11.61131 h 29.270632 c 7.222758,0 13.100269,5.20931 13.100269,11.61131 v 0.732 c 0,6.40371 -5.877511,11.61301 -13.100269,11.61301 h -3.351755 v 4.38858 h 68.768833 v -4.38858 h -3.34979 c -7.22276,0 -13.10029,-5.2093 -13.10029,-11.61301 v -0.732 c 0,-6.402 5.87753,-11.61131 13.10029,-11.61131 h 29.27251 c 7.22088,0 13.10035,5.20931 13.10035,11.61131 v 0.732 c 0,6.40371 -5.87947,11.61301 -13.10035,11.61301 h -3.35363 v 4.39029 z"
       id="path2"
       style="stroke-width:1.80827" />
    <rect
       x="126.34789"
       y="82.112717"
       width="48.807972"
       height="5.7501974"
       id="rect4"
       style="stroke-width:1.80827" />
    <rect
       x="126.34789"
       y="95.536087"
       width="25.932289"
       height="5.751904"
       id="rect6"
       style="stroke-width:1.80827" />
    <rect
       x="126.34789"
       y="34.502113"
       width="48.807972"
       height="5.751904"
       id="rect8"
       style="stroke-width:1.80827" />
    <rect
       x="126.34789"
       y="46.64407"
       width="48.807972"
       height="5.751904"
       id="rect10"
       style="stroke-width:1.80827" />
    <rect
       x="126.34789"
       y="60.065742"
       width="48.807972"
       height="5.751904"
       id="rect12"
       style="stroke-width:1.80827" />
    <path
       d="M 32.152629,34.502101 V 101.288 H 104.64305 V 34.502101 Z m 25.403323,29.266286 c 0,-5.323625 4.865677,-9.652483 10.84474,-9.652483 5.977182,0 10.83903,4.328858 10.83903,9.652483 0,5.323625 -4.861848,9.654193 -10.83903,9.654193 -5.979063,0 -10.84474,-4.330568 -10.84474,-9.654193 z M 90.962089,95.536099 H 45.833571 c 2.10032,-6.901946 11.415778,-12.121484 22.563278,-12.121484 11.147513,0 20.464934,5.217829 22.56524,12.121484 z m 7.220877,0 H 97.541247 C 95.795465,86.898857 86.545114,79.95255 74.598504,78.137061 c 6.481137,-2.226713 11.101502,-7.818222 11.101502,-14.365263 0,-8.492203 -7.759382,-15.404385 -17.299027,-15.404385 -9.541595,0 -17.302926,6.91048 -17.302926,15.404385 0,6.545332 4.618471,12.13855 11.10157,14.363554 -11.948572,1.813786 -21.198855,8.760094 -22.944692,17.400747 H 38.613199 V 40.254003 H 98.18347 Z"
       id="path14"
       style="stroke-width:1.80827" />
  </g>
</svg>
