<svg data-v-423bf9ae="" xmlns="http://www.w3.org/2000/svg" viewBox="0 0 648 90" class="iconLeft"><!----><!----><!----><g data-v-423bf9ae="" id="672dcb58-4eff-4180-ad14-b7e6f7dc07ff" fill="#000000" transform="matrix(5.660377154786554,0,0,5.660377154786554,82.39800595600559,-7.188679832290113)"><path d="M1.82 14.35L1.82 9.53L6.86 9.53L6.86 9.25L1.82 9.25L1.82 4.86L7.25 4.86L7.25 4.58L1.51 4.58L1.51 14.35ZM12.60 14.52C14.45 14.52 15.54 13.24 15.54 10.74C15.54 8.23 14.45 6.96 12.60 6.96C10.75 6.96 9.66 8.23 9.66 10.74C9.66 13.24 10.75 14.52 12.60 14.52ZM12.60 14.25C10.92 14.25 9.98 13.03 9.98 11.07L9.98 10.40C9.98 8.44 10.92 7.22 12.60 7.22C14.28 7.22 15.22 8.44 15.22 10.40L15.22 11.07C15.22 13.03 14.28 14.25 12.60 14.25ZM17.92 14.35L23.87 14.35L23.87 14.08L20.71 14.08L20.71 9.72C20.71 8.12 21.77 7.39 22.92 7.39L24.58 7.39L24.58 7.13L22.97 7.13C21.66 7.13 21.07 7.76 20.75 8.53L20.71 8.53L20.71 7.13L17.92 7.13L17.92 7.39L20.41 7.39L20.41 14.08L17.92 14.08ZM29.48 14.52C30.88 14.52 31.82 13.79 32.24 12.61L31.99 12.52C31.56 13.68 30.69 14.25 29.48 14.25C27.76 14.25 26.81 13.03 26.81 11.07L26.81 10.71L32.35 10.71L32.35 10.61C32.35 8.39 31.35 6.96 29.43 6.96C27.58 6.96 26.49 8.23 26.49 10.74C26.49 13.24 27.59 14.52 29.48 14.52ZM29.43 7.22C31.11 7.22 32.05 8.44 32.05 10.40L32.05 10.46L26.81 10.46L26.81 10.40C26.81 8.44 27.75 7.22 29.43 7.22ZM35.67 14.35L35.67 9.14C35.67 7.85 36.72 7.22 37.88 7.22C39.28 7.22 40.07 7.97 40.07 9.69L40.07 14.35L40.36 14.35L40.36 9.65C40.36 7.90 39.52 6.96 37.93 6.96C36.65 6.96 35.97 7.55 35.71 8.16L35.67 8.16L35.67 7.13L35.38 7.13L35.38 14.35ZM46.45 14.52C48.02 14.52 49.24 13.87 49.24 12.40C49.24 11.12 48.30 10.77 47.00 10.58L45.88 10.43C44.65 10.26 43.90 9.95 43.90 8.88C43.90 7.71 44.80 7.22 46.16 7.22C47.53 7.22 48.23 7.74 48.73 8.30L48.93 8.09C48.40 7.52 47.60 6.96 46.17 6.96C44.77 6.96 43.61 7.48 43.61 8.89C43.61 10.18 44.55 10.53 45.85 10.71L46.97 10.86C48.20 11.03 48.94 11.34 48.94 12.42C48.94 13.66 47.95 14.25 46.44 14.25C45.16 14.25 44.23 13.85 43.48 12.91L43.27 13.09C44.04 14.06 45.08 14.52 46.45 14.52ZM55.05 4.68C55.34 4.68 55.45 4.54 55.45 4.35L55.45 4.24C55.45 4.06 55.34 3.92 55.05 3.92C54.75 3.92 54.64 4.06 54.64 4.24L54.64 4.35C54.64 4.54 54.75 4.68 55.05 4.68ZM52.04 14.35L57.89 14.35L57.89 14.08L55.20 14.08L55.20 7.13L52.04 7.13L52.04 7.39L54.91 7.39L54.91 14.08L52.04 14.08ZM63.31 14.52C64.61 14.52 65.48 13.79 65.84 12.92L65.59 12.81C65.20 13.68 64.43 14.25 63.31 14.25C61.61 14.25 60.66 13.03 60.66 11.07L60.66 10.40C60.66 8.44 61.61 7.22 63.31 7.22C64.37 7.22 65.13 7.71 65.48 8.61L65.74 8.53C65.42 7.62 64.57 6.96 63.31 6.96C61.45 6.96 60.34 8.23 60.34 10.74C60.34 13.24 61.45 14.52 63.31 14.52ZM71.65 14.52C73.22 14.52 74.44 13.87 74.44 12.40C74.44 11.12 73.50 10.77 72.20 10.58L71.08 10.43C69.85 10.26 69.10 9.95 69.10 8.88C69.10 7.71 70 7.22 71.36 7.22C72.73 7.22 73.43 7.74 73.93 8.30L74.13 8.09C73.60 7.52 72.80 6.96 71.37 6.96C69.97 6.96 68.81 7.48 68.81 8.89C68.81 10.18 69.75 10.53 71.05 10.71L72.17 10.86C73.40 11.03 74.14 11.34 74.14 12.42C74.14 13.66 73.15 14.25 71.64 14.25C70.36 14.25 69.43 13.85 68.68 12.91L68.47 13.09C69.24 14.06 70.28 14.52 71.65 14.52ZM79.80 14.42C80.11 14.42 80.28 14.28 80.28 14.04L80.28 13.93C80.28 13.69 80.11 13.55 79.80 13.55C79.49 13.55 79.32 13.69 79.32 13.93L79.32 14.04C79.32 14.28 79.49 14.42 79.80 14.42ZM88.65 4.68C88.94 4.68 89.05 4.54 89.05 4.35L89.05 4.24C89.05 4.06 88.94 3.92 88.65 3.92C88.35 3.92 88.24 4.06 88.24 4.24L88.24 4.35C88.24 4.54 88.35 4.68 88.65 4.68ZM85.64 14.35L91.49 14.35L91.49 14.08L88.80 14.08L88.80 7.13L85.64 7.13L85.64 7.39L88.51 7.39L88.51 14.08L85.64 14.08ZM93.72 14.35L93.72 8.97C93.72 7.80 94.43 7.22 95.21 7.22C96.01 7.22 96.46 7.71 96.46 8.79L96.46 14.35L96.75 14.35L96.75 8.97C96.75 7.80 97.45 7.22 98.25 7.22C99.05 7.22 99.50 7.71 99.50 8.79L99.50 14.35L99.79 14.35L99.79 8.75C99.79 7.59 99.27 6.96 98.28 6.96C97.41 6.96 96.92 7.46 96.71 8.11L96.68 8.11C96.54 7.36 96.04 6.96 95.24 6.96C94.43 6.96 93.97 7.39 93.76 7.98L93.72 7.98L93.72 7.13L93.42 7.13L93.42 14.35Z"></path></g><defs data-v-423bf9ae=""><linearGradient data-v-423bf9ae="" gradientTransform="rotate(25)" id="bc97753a-010f-4c9d-9acc-563746f87e5b" x1="0%" y1="0%" x2="100%" y2="0%"><stop data-v-423bf9ae="" offset="0%" style="stop-color: rgb(235, 76, 0); stop-opacity: 1;"></stop><stop data-v-423bf9ae="" offset="100%" style="stop-color: rgb(255, 167, 17); stop-opacity: 1;"></stop></linearGradient></defs><g data-v-423bf9ae="" id="8f7e762d-3b5b-490b-a384-da418ac8c825" transform="matrix(1.006344077527313,0,0,1.006344077527313,-10.543808871161659,-0.001797763714428413)" stroke="none" fill="url(#bc97753a-010f-4c9d-9acc-563746f87e5b)"><path d="M71.548 42.286a1.635 1.635 0 0 1-1.598-1.985c.691-3.147 1.834-11.255-2.486-18.55-2.869-4.844-7.573-8.27-13.245-9.646-13.821-3.353-24.365 6.433-27.267 17.351l-.218.952a1.634 1.634 0 1 1-3.185-.732l.231-1.005C27.096 16.202 39.155 5.08 54.99 8.929c6.535 1.586 11.964 5.547 15.286 11.156 4.914 8.297 3.642 17.393 2.866 20.918a1.633 1.633 0 0 1-1.594 1.283zM44.488 89.716a1.633 1.633 0 0 1-.968-2.952 50.038 50.038 0 0 0 8.737-8.18 1.634 1.634 0 0 1 2.675.247 29.548 29.548 0 0 0 3.161 4.572 1.633 1.633 0 1 1-2.496 2.109 31.806 31.806 0 0 1-2.327-3.128 53.411 53.411 0 0 1-7.817 7.015c-.292.214-.63.317-.965.317z"></path><path d="M32.996 87.562a1.634 1.634 0 0 1-.737-3.093c12.688-6.393 18.263-15.761 22.396-24.933a1.636 1.636 0 0 1 1.827-.926c.75.159 1.29.819 1.296 1.587.001.113.164 11.391 6.698 18.598a1.635 1.635 0 0 1-2.421 2.196c-4.239-4.675-6.097-10.655-6.91-15-4.139 7.789-10.253 15.772-21.417 21.397a1.63 1.63 0 0 1-.732.174zM78.36 57.522a1.635 1.635 0 0 1-1.624-1.467c-.416-4.047-.116-9.079.822-13.805l.034-.168c.907-4.102 2.379-14.608-3.379-24.329-3.956-6.68-10.399-11.392-18.145-13.27C37.4-.058 23.232 12.922 19.374 27.441l-.335 1.454A29.777 29.777 0 0 1 14.2 40.278a1.633 1.633 0 1 1-2.677-1.874 26.595 26.595 0 0 0 4.321-10.192l.36-1.559c4.27-16.07 19.958-30.375 40.638-25.346 8.607 2.086 15.776 7.336 20.185 14.78 6.352 10.724 4.75 22.22 3.766 26.666l-.026.133c-.877 4.42-1.16 9.098-.777 12.835a1.633 1.633 0 0 1-1.63 1.801z"></path><path d="M73.529 68.175a1.632 1.632 0 0 1-1.387-.767c-5.334-8.513-3.086-22.607-2.27-26.725l.041-.208c.722-3.217 1.906-11.371-2.448-18.726-2.869-4.843-7.573-8.269-13.245-9.646-13.822-3.356-24.365 6.437-27.267 17.352l-.218.952c-2.102 10.705-8.11 17.698-12.779 21.669a1.635 1.635 0 0 1-2.118-2.489c4.272-3.634 9.771-10.031 11.701-19.861l.243-1.057c3.312-12.466 15.37-23.587 31.208-19.74 6.535 1.586 11.964 5.547 15.286 11.156 4.952 8.361 3.633 17.51 2.836 21.055l-.035.183c-.538 2.715-2.982 16.665 1.835 24.352a1.633 1.633 0 0 1-1.383 2.5z"></path><path d="M69.05 75.307c-.446 0-.891-.181-1.213-.538-9.42-10.415-7.095-28.375-5.658-35.613l.045-.235c.431-1.876 1.531-8.039-1.508-13.172-1.809-3.053-4.695-5.135-8.346-6.021-9.072-2.193-15.84 4.242-17.835 11.743l-.102.447c-3.3 16.804-14.739 26.04-19.504 29.228a1.634 1.634 0 0 1-1.818-2.716c4.426-2.961 15.051-11.54 18.125-27.192l.126-.552c2.417-9.091 10.667-16.828 21.778-14.133 4.527 1.099 8.119 3.704 10.388 7.532 3.559 6.011 2.515 12.819 1.901 15.467l-.046.242c-1.046 5.27-3.785 23.208 4.877 32.785a1.633 1.633 0 0 1-1.21 2.728z"></path><path d="M27.204 81.626a1.635 1.635 0 0 1-.66-3.131C50.163 68.103 54.47 37.767 54.511 37.461c.01-.07.023-.141.042-.209.011-.042 1.174-4.549-.59-7.515-.727-1.221-1.854-2.002-3.443-2.389-6.255-1.516-8.319 5.826-8.404 6.14-3.879 19.768-17.522 30.658-23.206 34.416a1.634 1.634 0 0 1-1.803-2.725c5.342-3.532 18.161-13.763 21.827-32.429 1.015-3.83 4.868-10.395 12.356-8.576 2.461.597 4.307 1.912 5.489 3.909 2.306 3.892 1.167 9.061.958 9.907-.324 2.325-5.006 32.555-29.875 43.499a1.652 1.652 0 0 1-.658.137z"></path><path d="M20.586 75.325a1.635 1.635 0 0 1-.659-3.131c21.685-9.531 26.962-37.319 27.014-37.599a1.633 1.633 0 1 1 3.215.582c-.218 1.21-5.618 29.77-28.914 40.009a1.622 1.622 0 0 1-.656.139z"></path></g><!----></svg>