<?xml version="1.0" encoding="UTF-8" standalone="no"?>
<svg
   xmlns:dc="http://purl.org/dc/elements/1.1/"
   xmlns:cc="http://creativecommons.org/ns#"
   xmlns:rdf="http://www.w3.org/1999/02/22-rdf-syntax-ns#"
   xmlns:svg="http://www.w3.org/2000/svg"
   xmlns="http://www.w3.org/2000/svg"
   xmlns:sodipodi="http://sodipodi.sourceforge.net/DTD/sodipodi-0.dtd"
   xmlns:inkscape="http://www.inkscape.org/namespaces/inkscape"
   width="210mm"
   height="297mm"
   viewBox="0 0 210 297"
   version="1.1"
   id="svg934"
   inkscape:version="1.0.1 (3bc2e813f5, 2020-09-07)"
   sodipodi:docname="hero.svg">
  <defs
     id="defs928">
    <linearGradient
       data-v-fde0c5aa=""
       gradientTransform="rotate(25)"
       id="4551572d-f979-4809-b21d-7c8611e7505a"
       x1="0"
       y1="0"
       x2="1"
       y2="0">
      <stop
         data-v-fde0c5aa=""
         offset="0%"
         stop-color="#E63500"
         stop-opacity="1"
         id="stop11" />
      <stop
         data-v-fde0c5aa=""
         offset="100%"
         stop-color="#F98D00"
         stop-opacity="1"
         id="stop13" />
    </linearGradient>
  </defs>
  <sodipodi:namedview
     id="base"
     pagecolor="#ffffff"
     bordercolor="#666666"
     borderopacity="1.0"
     inkscape:pageopacity="0.0"
     inkscape:pageshadow="2"
     inkscape:zoom="0.35"
     inkscape:cx="566.55634"
     inkscape:cy="560"
     inkscape:document-units="mm"
     inkscape:current-layer="layer1"
     inkscape:document-rotation="0"
     showgrid="false"
     inkscape:window-width="1267"
     inkscape:window-height="1198"
     inkscape:window-x="966"
     inkscape:window-y="1440"
     inkscape:window-maximized="0" />
  <metadata
     id="metadata931">
    <rdf:RDF>
      <cc:Work
         rdf:about="">
        <dc:format>image/svg+xml</dc:format>
        <dc:type
           rdf:resource="http://purl.org/dc/dcmitype/StillImage" />
        <dc:title></dc:title>
      </cc:Work>
    </rdf:RDF>
  </metadata>
  <g
     inkscape:label="Layer 1"
     inkscape:groupmode="layer"
     id="layer1">
    <g
       data-v-fde0c5aa=""
       id="9e48e081-1463-40fc-9bcb-3262e375f0df"
       stroke="none"
       fill="#ffffff"
       transform="matrix(2.3117786,-0.89316681,0.89316681,2.3117786,-44.256852,90.56205)">
      <path
         d="M 71.548,42.286 A 1.635,1.635 0 0 1 69.95,40.301 C 70.641,37.154 71.784,29.046 67.464,21.751 64.595,16.907 59.891,13.481 54.219,12.105 40.398,8.752 29.854,18.538 26.952,29.456 l -0.218,0.952 A 1.6340172,1.6340172 0 1 1 23.549,29.676 L 23.78,28.671 C 27.096,16.202 39.155,5.08 54.99,8.929 c 6.535,1.586 11.964,5.547 15.286,11.156 4.914,8.297 3.642,17.393 2.866,20.918 a 1.633,1.633 0 0 1 -1.594,1.283 z m -27.06,47.43 a 1.633,1.633 0 0 1 -0.968,-2.952 50.038,50.038 0 0 0 8.737,-8.18 1.634,1.634 0 0 1 2.675,0.247 29.548,29.548 0 0 0 3.161,4.572 1.6338526,1.6338526 0 1 1 -2.496,2.109 31.806,31.806 0 0 1 -2.327,-3.128 53.411,53.411 0 0 1 -7.817,7.015 c -0.292,0.214 -0.63,0.317 -0.965,0.317 z"
         id="path13" />
      <path
         d="M 32.996,87.562 A 1.634,1.634 0 0 1 32.259,84.469 C 44.947,78.076 50.522,68.708 54.655,59.536 a 1.636,1.636 0 0 1 1.827,-0.926 c 0.75,0.159 1.29,0.819 1.296,1.587 0.001,0.113 0.164,11.391 6.698,18.598 a 1.635,1.635 0 0 1 -2.421,2.196 c -4.239,-4.675 -6.097,-10.655 -6.91,-15 -4.139,7.789 -10.253,15.772 -21.417,21.397 a 1.63,1.63 0 0 1 -0.732,0.174 z M 78.36,57.522 A 1.635,1.635 0 0 1 76.736,56.055 C 76.32,52.008 76.62,46.976 77.558,42.25 l 0.034,-0.168 C 78.499,37.98 79.971,27.474 74.213,17.753 70.257,11.073 63.814,6.361 56.068,4.483 37.4,-0.058 23.232,12.922 19.374,27.441 l -0.335,1.454 A 29.777,29.777 0 0 1 14.2,40.278 1.6338761,1.6338761 0 1 1 11.523,38.404 26.595,26.595 0 0 0 15.844,28.212 l 0.36,-1.559 c 4.27,-16.07 19.958,-30.375 40.638,-25.346 8.607,2.086 15.776,7.336 20.185,14.78 6.352,10.724 4.75,22.22 3.766,26.666 l -0.026,0.133 c -0.877,4.42 -1.16,9.098 -0.777,12.835 a 1.633,1.633 0 0 1 -1.63,1.801 z"
         id="path15" />
      <path
         d="M 73.529,68.175 A 1.632,1.632 0 0 1 72.142,67.408 C 66.808,58.895 69.056,44.801 69.872,40.683 l 0.041,-0.208 C 70.635,37.258 71.819,29.104 67.465,21.749 64.596,16.906 59.892,13.48 54.22,12.103 40.398,8.747 29.855,18.54 26.953,29.455 l -0.218,0.952 C 24.633,41.112 18.625,48.105 13.956,52.076 A 1.635,1.635 0 0 1 11.838,49.587 C 16.11,45.953 21.609,39.556 23.539,29.726 l 0.243,-1.057 C 27.094,16.203 39.152,5.082 54.99,8.929 c 6.535,1.586 11.964,5.547 15.286,11.156 4.952,8.361 3.633,17.51 2.836,21.055 l -0.035,0.183 c -0.538,2.715 -2.982,16.665 1.835,24.352 a 1.633,1.633 0 0 1 -1.383,2.5 z"
         id="path17" />
      <path
         d="m 69.05,75.307 c -0.446,0 -0.891,-0.181 -1.213,-0.538 -9.42,-10.415 -7.095,-28.375 -5.658,-35.613 l 0.045,-0.235 C 62.655,37.045 63.755,30.882 60.716,25.749 58.907,22.696 56.021,20.614 52.37,19.728 43.298,17.535 36.53,23.97 34.535,31.471 l -0.102,0.447 c -3.3,16.804 -14.739,26.04 -19.504,29.228 A 1.6341496,1.6341496 0 0 1 13.111,58.43 C 17.537,55.469 28.162,46.89 31.236,31.238 l 0.126,-0.552 c 2.417,-9.091 10.667,-16.828 21.778,-14.133 4.527,1.099 8.119,3.704 10.388,7.532 3.559,6.011 2.515,12.819 1.901,15.467 l -0.046,0.242 c -1.046,5.27 -3.785,23.208 4.877,32.785 a 1.633,1.633 0 0 1 -1.21,2.728 z"
         id="path19" />
      <path
         d="m 27.204,81.626 a 1.635,1.635 0 0 1 -0.66,-3.131 C 50.163,68.103 54.47,37.767 54.511,37.461 c 0.01,-0.07 0.023,-0.141 0.042,-0.209 0.011,-0.042 1.174,-4.549 -0.59,-7.515 -0.727,-1.221 -1.854,-2.002 -3.443,-2.389 -6.255,-1.516 -8.319,5.826 -8.404,6.14 C 38.237,53.256 24.594,64.146 18.91,67.904 a 1.634,1.634 0 0 1 -1.803,-2.725 c 5.342,-3.532 18.161,-13.763 21.827,-32.429 1.015,-3.83 4.868,-10.395 12.356,-8.576 2.461,0.597 4.307,1.912 5.489,3.909 2.306,3.892 1.167,9.061 0.958,9.907 -0.324,2.325 -5.006,32.555 -29.875,43.499 a 1.652,1.652 0 0 1 -0.658,0.137 z"
         id="path21" />
      <path
         d="M 20.586,75.325 A 1.635,1.635 0 0 1 19.927,72.194 C 41.612,62.663 46.889,34.875 46.941,34.595 a 1.633627,1.633627 0 1 1 3.215,0.582 c -0.218,1.21 -5.618,29.77 -28.914,40.009 a 1.622,1.622 0 0 1 -0.656,0.139 z"
         id="path23" />
    </g>
  </g>
</svg>
