<svg data-v-423bf9ae="" xmlns="http://www.w3.org/2000/svg" viewBox="0 0 463.67345153272333 60" class="font"><!----><!----><!----><g data-v-423bf9ae="" id="68b82844-5d6c-4b56-905c-c8269d82dab2" fill="black" transform="matrix(5.830903811703725,0,0,5.830903811703725,-6.12244281832443,-12.6530621930969)"><path d="M1.05 12.29L1.05 2.69L7.91 2.69L7.91 4.02L2.60 4.02L2.60 6.86L7.39 6.86L7.39 8.19L2.60 8.19L2.60 12.29L1.05 12.29ZM12.56 12.46L12.56 12.46Q10.81 12.46 9.93 11.52L9.93 11.52L9.93 11.52Q9.06 10.57 9.06 8.61L9.06 8.61L9.06 8.61Q9.06 6.65 9.93 5.71L9.93 5.71L9.93 5.71Q10.81 4.76 12.56 4.76L12.56 4.76L12.56 4.76Q14.31 4.76 15.19 5.71L15.19 5.71L15.19 5.71Q16.07 6.65 16.07 8.61L16.07 8.61L16.07 8.61Q16.07 10.57 15.19 11.52L15.19 11.52L15.19 11.52Q14.31 12.46 12.56 12.46L12.56 12.46ZM12.56 11.27L12.56 11.27Q13.62 11.27 14.11 10.65L14.11 10.65L14.11 10.65Q14.59 10.02 14.59 8.68L14.59 8.68L14.59 8.54L14.59 8.54Q14.59 7.20 14.11 6.57L14.11 6.57L14.11 6.57Q13.62 5.95 12.56 5.95L12.56 5.95L12.56 5.95Q11.51 5.95 11.03 6.57L11.03 6.57L11.03 6.57Q10.54 7.20 10.54 8.54L10.54 8.54L10.54 8.68L10.54 8.68Q10.54 10.02 11.03 10.65L11.03 10.65L11.03 10.65Q11.51 11.27 12.56 11.27L12.56 11.27ZM17.53 12.29L17.53 4.93L18.69 4.93L18.83 6.06L18.91 6.06L18.91 6.06Q19.42 4.76 20.61 4.76L20.61 4.76L20.61 4.76Q20.86 4.76 21.05 4.81L21.05 4.81L21.05 4.81Q21.24 4.86 21.29 4.87L21.29 4.87L21.29 6.24L20.78 6.24L20.78 6.24Q19.95 6.24 19.46 6.72L19.46 6.72L19.46 6.72Q18.97 7.20 18.97 8.18L18.97 8.18L18.97 12.29L17.53 12.29ZM25.52 12.46L25.52 12.46Q23.74 12.46 22.88 11.52L22.88 11.52L22.88 11.52Q22.01 10.58 22.01 8.61L22.01 8.61L22.01 8.61Q22.01 6.64 22.88 5.70L22.88 5.70L22.88 5.70Q23.74 4.76 25.52 4.76L25.52 4.76L25.52 4.76Q27.13 4.76 27.93 5.63L27.93 5.63L27.93 5.63Q28.73 6.51 28.73 8.41L28.73 8.41L28.73 8.97L23.49 8.97L23.49 8.97Q23.55 10.16 24.03 10.73L24.03 10.73L24.03 10.73Q24.51 11.30 25.54 11.30L25.54 11.30L25.54 11.30Q26.33 11.30 26.82 10.92L26.82 10.92L26.82 10.92Q27.31 10.54 27.31 9.76L27.31 9.76L28.73 9.76L28.73 9.76Q28.73 11.07 27.84 11.77L27.84 11.77L27.84 11.77Q26.95 12.46 25.52 12.46L25.52 12.46ZM23.52 7.88L27.23 7.88L27.23 7.88Q27.23 5.92 25.52 5.92L25.52 5.92L25.52 5.92Q24.57 5.92 24.09 6.39L24.09 6.39L24.09 6.39Q23.62 6.86 23.52 7.88L23.52 7.88ZM30.21 12.29L30.21 4.93L31.37 4.93L31.51 5.91L31.61 5.91L31.61 5.91Q32.00 5.35 32.63 5.05L32.63 5.05L32.63 5.05Q33.25 4.76 34.03 4.76L34.03 4.76L34.03 4.76Q36.37 4.76 36.37 7.29L36.37 7.29L36.37 12.29L34.93 12.29L34.93 7.48L34.93 7.48Q34.93 6.65 34.56 6.32L34.56 6.32L34.56 6.32Q34.19 5.99 33.47 5.99L33.47 5.99L33.47 5.99Q32.98 5.99 32.56 6.24L32.56 6.24L32.56 6.24Q32.14 6.48 31.90 6.93L31.90 6.93L31.90 6.93Q31.65 7.38 31.65 7.97L31.65 7.97L31.65 12.29L30.21 12.29ZM40.88 12.46L40.88 12.46Q39.37 12.46 38.58 11.83L38.58 11.83L38.58 11.83Q37.79 11.20 37.79 10.25L37.79 10.25L37.79 10.25Q37.79 10.09 37.79 10.04L37.79 10.04L37.79 10.04Q37.80 10.00 37.80 9.98L37.80 9.98L39.21 9.98L39.21 10.11L39.21 10.11Q39.21 10.71 39.70 11.01L39.70 11.01L39.70 11.01Q40.19 11.31 40.95 11.31L40.95 11.31L40.95 11.31Q41.62 11.31 42.08 11.06L42.08 11.06L42.08 11.06Q42.53 10.81 42.53 10.35L42.53 10.35L42.53 10.35Q42.53 9.98 42.28 9.75L42.28 9.75L42.28 9.75Q42.03 9.52 41.66 9.39L41.66 9.39L41.66 9.39Q41.30 9.25 40.61 9.07L40.61 9.07L40.61 9.07Q39.77 8.86 39.24 8.65L39.24 8.65L39.24 8.65Q38.71 8.44 38.34 8.02L38.34 8.02L38.34 8.02Q37.97 7.60 37.97 6.90L37.97 6.90L37.97 6.90Q37.97 5.89 38.79 5.33L38.79 5.33L38.79 5.33Q39.62 4.76 40.99 4.76L40.99 4.76L40.99 4.76Q41.85 4.76 42.48 5.02L42.48 5.02L42.48 5.02Q43.12 5.28 43.46 5.74L43.46 5.74L43.46 5.74Q43.81 6.20 43.81 6.78L43.81 6.78L43.79 7.06L42.38 7.06L42.38 6.96L42.38 6.96Q42.38 6.50 42.01 6.21L42.01 6.21L42.01 6.21Q41.64 5.92 40.87 5.92L40.87 5.92L40.87 5.92Q40.12 5.92 39.78 6.18L39.78 6.18L39.78 6.18Q39.44 6.44 39.44 6.79L39.44 6.79L39.44 6.79Q39.44 7.22 39.86 7.43L39.86 7.43L39.86 7.43Q40.28 7.64 41.19 7.85L41.19 7.85L41.19 7.85Q42.07 8.06 42.63 8.28L42.63 8.28L42.63 8.28Q43.19 8.50 43.60 8.95L43.60 8.95L43.60 8.95Q44.00 9.41 44.00 10.16L44.00 10.16L44.00 10.16Q44.00 11.34 43.15 11.90L43.15 11.90L43.15 11.90Q42.31 12.46 40.88 12.46L40.88 12.46ZM45.47 3.65L45.47 2.17L46.91 2.17L46.91 3.65L45.47 3.65ZM45.47 12.29L45.47 4.93L46.91 4.93L46.91 12.29L45.47 12.29ZM51.70 12.46L51.70 12.46Q49.99 12.46 49.18 11.52L49.18 11.52L49.18 11.52Q48.37 10.58 48.37 8.61L48.37 8.61L48.37 8.61Q48.37 6.64 49.19 5.70L49.19 5.70L49.19 5.70Q50.01 4.76 51.70 4.76L51.70 4.76L51.70 4.76Q53.20 4.76 53.95 5.50L53.95 5.50L53.95 5.50Q54.70 6.23 54.70 7.67L54.70 7.67L53.24 7.67L53.24 7.67Q53.24 6.78 52.88 6.36L52.88 6.36L52.88 6.36Q52.53 5.94 51.69 5.94L51.69 5.94L51.69 5.94Q50.74 5.94 50.30 6.57L50.30 6.57L50.30 6.57Q49.85 7.20 49.85 8.58L49.85 8.58L49.85 8.68L49.85 8.68Q49.85 10.05 50.30 10.67L50.30 10.67L50.30 10.67Q50.74 11.28 51.72 11.28L51.72 11.28L51.72 11.28Q52.54 11.28 52.93 10.84L52.93 10.84L52.93 10.84Q53.31 10.40 53.31 9.55L53.31 9.55L54.70 9.55L54.70 9.55Q54.70 10.86 53.94 11.66L53.94 11.66L53.94 11.66Q53.19 12.46 51.70 12.46L51.70 12.46ZM58.70 12.46L58.70 12.46Q57.19 12.46 56.40 11.83L56.40 11.83L56.40 11.83Q55.61 11.20 55.61 10.25L55.61 10.25L55.61 10.25Q55.61 10.09 55.62 10.04L55.62 10.04L55.62 10.04Q55.62 10.00 55.62 9.98L55.62 9.98L57.04 9.98L57.04 10.11L57.04 10.11Q57.04 10.71 57.53 11.01L57.53 11.01L57.53 11.01Q58.02 11.31 58.77 11.31L58.77 11.31L58.77 11.31Q59.44 11.31 59.90 11.06L59.90 11.06L59.90 11.06Q60.35 10.81 60.35 10.35L60.35 10.35L60.35 10.35Q60.35 9.98 60.10 9.75L60.10 9.75L60.10 9.75Q59.85 9.52 59.49 9.39L59.49 9.39L59.49 9.39Q59.12 9.25 58.44 9.07L58.44 9.07L58.44 9.07Q57.60 8.86 57.06 8.65L57.06 8.65L57.06 8.65Q56.53 8.44 56.16 8.02L56.16 8.02L56.16 8.02Q55.79 7.60 55.79 6.90L55.79 6.90L55.79 6.90Q55.79 5.89 56.62 5.33L56.62 5.33L56.62 5.33Q57.44 4.76 58.81 4.76L58.81 4.76L58.81 4.76Q59.67 4.76 60.30 5.02L60.30 5.02L60.30 5.02Q60.94 5.28 61.28 5.74L61.28 5.74L61.28 5.74Q61.63 6.20 61.63 6.78L61.63 6.78L61.61 7.06L60.20 7.06L60.20 6.96L60.20 6.96Q60.20 6.50 59.83 6.21L59.83 6.21L59.83 6.21Q59.46 5.92 58.69 5.92L58.69 5.92L58.69 5.92Q57.95 5.92 57.60 6.18L57.60 6.18L57.60 6.18Q57.26 6.44 57.26 6.79L57.26 6.79L57.26 6.79Q57.26 7.22 57.68 7.43L57.68 7.43L57.68 7.43Q58.10 7.64 59.01 7.85L59.01 7.85L59.01 7.85Q59.89 8.06 60.45 8.28L60.45 8.28L60.45 8.28Q61.01 8.50 61.42 8.95L61.42 8.95L61.42 8.95Q61.82 9.41 61.82 10.16L61.82 10.16L61.82 10.16Q61.82 11.34 60.98 11.90L60.98 11.90L60.98 11.90Q60.13 12.46 58.70 12.46L58.70 12.46ZM63.53 12.29L63.53 10.65L65.09 10.65L65.09 12.29L63.53 12.29ZM67.19 3.65L67.19 2.17L68.63 2.17L68.63 3.65L67.19 3.65ZM67.19 12.29L67.19 4.93L68.63 4.93L68.63 12.29L67.19 12.29ZM70.53 12.29L70.53 4.93L71.69 4.93L71.83 5.91L71.93 5.91L71.93 5.91Q72.31 5.35 72.86 5.05L72.86 5.05L72.86 5.05Q73.40 4.76 74.10 4.76L74.10 4.76L74.10 4.76Q75.53 4.76 76.02 5.91L76.02 5.91L76.10 5.91L76.10 5.91Q76.48 5.36 77.07 5.06L77.07 5.06L77.07 5.06Q77.66 4.76 78.36 4.76L78.36 4.76L78.36 4.76Q79.39 4.76 79.98 5.31L79.98 5.31L79.98 5.31Q80.57 5.87 80.57 7.10L80.57 7.10L80.57 12.29L79.13 12.29L79.13 7.38L79.13 7.38Q79.13 6.62 78.80 6.31L78.80 6.31L78.80 6.31Q78.47 5.99 77.88 5.99L77.88 5.99L77.88 5.99Q77.20 5.99 76.73 6.54L76.73 6.54L76.73 6.54Q76.27 7.08 76.27 7.97L76.27 7.97L76.27 12.29L74.83 12.29L74.83 7.38L74.83 7.38Q74.83 6.62 74.52 6.31L74.52 6.31L74.52 6.31Q74.20 5.99 73.61 5.99L73.61 5.99L73.61 5.99Q72.93 5.99 72.45 6.54L72.45 6.54L72.45 6.54Q71.97 7.08 71.97 7.97L71.97 7.97L71.97 12.29L70.53 12.29Z"></path></g><!----><!----></svg>